<svg width="375" height="812" viewBox="0 0 375 812" fill="none" xmlns="http://www.w3.org/2000/svg">
<rect width="375" height="812" fill="url(#paint0_linear_70_427)"/>
<g filter="url(#filter0_di_70_427)">
<path d="M69.9609 100.5V128.85L66.7269 125.7H90.3729V132H62.8209V100.5H69.9609ZM160.284 113.52V118.98H137.73V113.52H160.284ZM142.518 116.25L140.418 129.606L137.31 126.078H161.586V132H133.236L135.672 116.25L133.236 100.5H161.376V106.422H137.31L140.418 102.894L142.518 116.25ZM229.877 113.52V118.98H207.323V113.52H229.877ZM212.111 116.25L210.011 129.606L206.903 126.078H231.179V132H202.829L205.265 116.25L202.829 100.5H230.969V106.422H206.903L210.011 102.894L212.111 116.25ZM286.052 103.692H293.15V132H286.052V103.692ZM273.494 100.5H305.666V106.8H273.494V100.5Z" fill="white"/>
<path d="M183.5 128.85H180.35L193.202 100.5H200.762L185.81 132H177.788L162.878 100.5H170.522L183.5 128.85ZM265.465 127.296L262.987 127.674V100.5H269.917V132H260.887L240.727 104.826L243.163 104.448V132H236.275V100.5H245.515L265.465 127.296Z" fill="#081622"/>
</g>
<g filter="url(#filter1_di_70_427)">
<path d="M107 100H113V105.571C113 105.571 112.848 107.882 111.288 109.551C109.727 111.219 107 110.989 107 110.989V108.464C107 108.464 107.989 108.372 108.773 107.546C109.557 106.719 109.561 105.755 109.561 105.755H107V100Z" fill="#081520"/>
</g>
<path d="M103.467 162.645C103.386 163.342 103.14 163.958 102.73 164.493C102.326 165.021 101.791 165.432 101.124 165.725C100.464 166.018 99.7082 166.165 98.8575 166.165C97.9188 166.165 97.0938 165.985 96.3825 165.626C95.6785 165.267 95.1285 164.768 94.7325 164.13C94.3365 163.485 94.1385 162.733 94.1385 161.875C94.1385 161.017 94.3365 160.269 94.7325 159.631C95.1285 158.986 95.6785 158.483 96.3825 158.124C97.0938 157.765 97.9188 157.585 98.8575 157.585C99.7082 157.585 100.464 157.732 101.124 158.025C101.791 158.318 102.326 158.729 102.73 159.257C103.14 159.785 103.386 160.401 103.467 161.105H101.586C101.512 160.716 101.355 160.383 101.113 160.104C100.871 159.818 100.559 159.598 100.178 159.444C99.7962 159.29 99.3525 159.213 98.8465 159.213C98.2672 159.213 97.7648 159.323 97.3395 159.543C96.9215 159.756 96.5988 160.064 96.3715 160.467C96.1442 160.863 96.0305 161.332 96.0305 161.875C96.0305 162.418 96.1442 162.891 96.3715 163.294C96.5988 163.69 96.9215 163.998 97.3395 164.218C97.7648 164.431 98.2672 164.537 98.8465 164.537C99.3525 164.537 99.7962 164.464 100.178 164.317C100.559 164.163 100.871 163.947 101.113 163.668C101.355 163.382 101.512 163.041 101.586 162.645H103.467ZM107.763 166.165C106.986 166.165 106.304 166.029 105.717 165.758C105.13 165.479 104.672 165.094 104.342 164.603C104.012 164.104 103.847 163.529 103.847 162.876C103.847 162.216 104.012 161.64 104.342 161.149C104.672 160.65 105.13 160.265 105.717 159.994C106.304 159.715 106.986 159.576 107.763 159.576C108.54 159.576 109.222 159.715 109.809 159.994C110.396 160.265 110.85 160.65 111.173 161.149C111.503 161.64 111.668 162.216 111.668 162.876C111.668 163.529 111.503 164.104 111.173 164.603C110.85 165.094 110.396 165.479 109.809 165.758C109.222 166.029 108.54 166.165 107.763 166.165ZM107.763 164.768C108.188 164.768 108.551 164.691 108.852 164.537C109.16 164.383 109.395 164.167 109.556 163.888C109.725 163.602 109.809 163.265 109.809 162.876C109.809 162.48 109.725 162.143 109.556 161.864C109.395 161.578 109.16 161.358 108.852 161.204C108.551 161.05 108.188 160.973 107.763 160.973C107.345 160.973 106.982 161.05 106.674 161.204C106.366 161.358 106.128 161.578 105.959 161.864C105.798 162.143 105.717 162.48 105.717 162.876C105.717 163.265 105.798 163.602 105.959 163.888C106.128 164.167 106.366 164.383 106.674 164.537C106.982 164.691 107.345 164.768 107.763 164.768ZM112.087 159.741H113.924L114.32 162.128V166H112.483V161.853L112.087 159.741ZM116.707 159.576C117.301 159.576 117.807 159.697 118.225 159.939C118.643 160.174 118.962 160.511 119.182 160.951C119.402 161.391 119.512 161.915 119.512 162.524V166H117.675V162.799C117.675 162.234 117.539 161.809 117.268 161.523C116.996 161.23 116.6 161.083 116.08 161.083C115.728 161.083 115.416 161.164 115.145 161.325C114.881 161.479 114.675 161.695 114.529 161.974C114.389 162.253 114.32 162.586 114.32 162.975L113.715 162.656C113.788 161.996 113.964 161.439 114.243 160.984C114.521 160.529 114.873 160.181 115.299 159.939C115.724 159.697 116.193 159.576 116.707 159.576ZM120.165 159.741H122.002L122.398 162.128V166H120.561V161.853L120.165 159.741ZM124.785 159.576C125.379 159.576 125.885 159.697 126.303 159.939C126.721 160.174 127.04 160.511 127.26 160.951C127.48 161.391 127.59 161.915 127.59 162.524V166H125.753V162.799C125.753 162.234 125.617 161.809 125.346 161.523C125.074 161.23 124.678 161.083 124.158 161.083C123.806 161.083 123.494 161.164 123.223 161.325C122.959 161.479 122.753 161.695 122.607 161.974C122.467 162.253 122.398 162.586 122.398 162.975L121.793 162.656C121.866 161.996 122.042 161.439 122.321 160.984C122.599 160.529 122.951 160.181 123.377 159.939C123.802 159.697 124.271 159.576 124.785 159.576ZM132.081 166.165C131.34 166.165 130.677 166.029 130.09 165.758C129.511 165.479 129.052 165.091 128.715 164.592C128.385 164.093 128.22 163.514 128.22 162.854C128.22 162.201 128.378 161.629 128.693 161.138C129.016 160.647 129.456 160.265 130.013 159.994C130.57 159.715 131.205 159.576 131.916 159.576C132.642 159.576 133.265 159.737 133.786 160.06C134.307 160.375 134.706 160.823 134.985 161.402C135.271 161.981 135.414 162.663 135.414 163.448H129.694V162.227H134.424L133.709 162.667C133.68 162.3 133.588 161.989 133.434 161.732C133.287 161.475 133.086 161.277 132.829 161.138C132.572 160.999 132.272 160.929 131.927 160.929C131.553 160.929 131.227 161.006 130.948 161.16C130.677 161.307 130.464 161.516 130.31 161.787C130.163 162.051 130.09 162.363 130.09 162.722C130.09 163.155 130.185 163.525 130.376 163.833C130.567 164.141 130.845 164.376 131.212 164.537C131.579 164.698 132.022 164.779 132.543 164.779C133.012 164.779 133.485 164.713 133.962 164.581C134.439 164.442 134.868 164.247 135.249 163.998V165.23C134.838 165.523 134.358 165.754 133.808 165.923C133.265 166.084 132.69 166.165 132.081 166.165ZM143.338 163.448C143.265 163.983 143.056 164.456 142.711 164.867C142.374 165.278 141.938 165.597 141.402 165.824C140.867 166.051 140.269 166.165 139.609 166.165C138.861 166.165 138.201 166.029 137.629 165.758C137.065 165.479 136.621 165.091 136.298 164.592C135.983 164.093 135.825 163.521 135.825 162.876C135.825 162.223 135.983 161.651 136.298 161.16C136.621 160.661 137.065 160.273 137.629 159.994C138.201 159.715 138.861 159.576 139.609 159.576C140.269 159.576 140.867 159.693 141.402 159.928C141.938 160.155 142.374 160.474 142.711 160.885C143.056 161.288 143.265 161.761 143.338 162.304H141.501C141.406 161.879 141.186 161.552 140.841 161.325C140.504 161.09 140.093 160.973 139.609 160.973C139.221 160.973 138.88 161.05 138.586 161.204C138.3 161.351 138.08 161.567 137.926 161.853C137.772 162.132 137.695 162.473 137.695 162.876C137.695 163.272 137.772 163.613 137.926 163.899C138.08 164.178 138.3 164.394 138.586 164.548C138.88 164.695 139.221 164.768 139.609 164.768C140.101 164.768 140.515 164.647 140.852 164.405C141.197 164.163 141.413 163.844 141.501 163.448H143.338ZM143.284 161.127V160.313L144.593 159.884L145.374 158.091H146.43V159.741H149.202V161.127H146.43V163.404C146.43 163.888 146.529 164.229 146.727 164.427C146.932 164.618 147.284 164.713 147.783 164.713C148.098 164.713 148.377 164.684 148.619 164.625C148.861 164.566 149.092 164.482 149.312 164.372V165.802C149.099 165.89 148.817 165.971 148.465 166.044C148.113 166.125 147.75 166.165 147.376 166.165C146.723 166.165 146.191 166.062 145.781 165.857C145.377 165.644 145.077 165.351 144.879 164.977C144.688 164.603 144.593 164.167 144.593 163.668V161.127H143.284ZM149.683 167.573L150.706 165.406L150.805 166.077C150.607 166.077 150.424 166.029 150.255 165.934C150.094 165.831 149.966 165.699 149.87 165.538C149.775 165.377 149.727 165.197 149.727 164.999C149.727 164.801 149.775 164.621 149.87 164.46C149.966 164.299 150.094 164.174 150.255 164.086C150.424 163.991 150.607 163.943 150.805 163.943C151.018 163.943 151.205 163.991 151.366 164.086C151.528 164.181 151.656 164.313 151.751 164.482C151.847 164.643 151.894 164.83 151.894 165.043C151.894 165.234 151.847 165.439 151.751 165.659C151.663 165.879 151.509 166.161 151.289 166.506L150.629 167.573H149.683ZM159.606 157.75C160.258 157.75 160.823 157.864 161.3 158.091C161.776 158.318 162.139 158.637 162.389 159.048C162.645 159.459 162.774 159.935 162.774 160.478C162.774 161.021 162.645 161.497 162.389 161.908C162.139 162.311 161.776 162.63 161.3 162.865C160.823 163.092 160.258 163.206 159.606 163.206H155.965V161.666H159.507C159.939 161.666 160.277 161.56 160.519 161.347C160.768 161.134 160.893 160.845 160.893 160.478C160.893 160.104 160.768 159.814 160.519 159.609C160.277 159.396 159.939 159.29 159.507 159.29H156.13L156.977 158.399V166H155.107V157.75H159.606ZM168.976 166L168.712 163.712L169.009 162.876L168.712 162.051L168.976 159.741H170.879L170.516 162.876L170.879 166H168.976ZM169.46 162.876C169.343 163.536 169.127 164.115 168.811 164.614C168.503 165.105 168.111 165.487 167.634 165.758C167.165 166.029 166.637 166.165 166.05 166.165C165.442 166.165 164.903 166.029 164.433 165.758C163.964 165.479 163.597 165.094 163.333 164.603C163.077 164.104 162.948 163.529 162.948 162.876C162.948 162.216 163.077 161.64 163.333 161.149C163.597 160.65 163.964 160.265 164.433 159.994C164.903 159.715 165.442 159.576 166.05 159.576C166.637 159.576 167.165 159.712 167.634 159.983C168.111 160.254 168.507 160.639 168.822 161.138C169.138 161.629 169.35 162.209 169.46 162.876ZM164.807 162.876C164.807 163.243 164.881 163.565 165.027 163.844C165.181 164.123 165.39 164.343 165.654 164.504C165.918 164.658 166.223 164.735 166.567 164.735C166.912 164.735 167.235 164.658 167.535 164.504C167.843 164.343 168.115 164.123 168.349 163.844C168.584 163.565 168.767 163.243 168.899 162.876C168.767 162.509 168.584 162.187 168.349 161.908C168.115 161.622 167.843 161.402 167.535 161.248C167.235 161.087 166.912 161.006 166.567 161.006C166.223 161.006 165.918 161.087 165.654 161.248C165.39 161.402 165.181 161.622 165.027 161.908C164.881 162.187 164.807 162.509 164.807 162.876ZM171.477 159.741H173.336L173.71 161.996V166H171.873V161.798L171.477 159.741ZM176.757 159.675V161.259C176.567 161.215 176.376 161.182 176.185 161.16C175.995 161.138 175.815 161.127 175.646 161.127C175.28 161.127 174.95 161.204 174.656 161.358C174.363 161.512 174.132 161.75 173.963 162.073C173.795 162.396 173.71 162.803 173.71 163.294L173.325 162.832C173.369 162.385 173.45 161.967 173.567 161.578C173.685 161.182 173.846 160.837 174.051 160.544C174.264 160.243 174.524 160.009 174.832 159.84C175.14 159.664 175.507 159.576 175.932 159.576C176.072 159.576 176.211 159.587 176.35 159.609C176.497 159.624 176.633 159.646 176.757 159.675ZM176.69 161.127V160.313L177.999 159.884L178.78 158.091H179.836V159.741H182.608V161.127H179.836V163.404C179.836 163.888 179.935 164.229 180.133 164.427C180.338 164.618 180.69 164.713 181.189 164.713C181.504 164.713 181.783 164.684 182.025 164.625C182.267 164.566 182.498 164.482 182.718 164.372V165.802C182.505 165.89 182.223 165.971 181.871 166.044C181.519 166.125 181.156 166.165 180.782 166.165C180.129 166.165 179.597 166.062 179.187 165.857C178.783 165.644 178.483 165.351 178.285 164.977C178.094 164.603 177.999 164.167 177.999 163.668V161.127H176.69ZM183.365 159.675L184.278 159.851L185.202 159.675V166H183.365V159.675ZM184.278 159.026C183.948 159.026 183.676 158.942 183.464 158.773C183.258 158.597 183.156 158.366 183.156 158.08C183.156 157.787 183.258 157.556 183.464 157.387C183.676 157.211 183.948 157.123 184.278 157.123C184.615 157.123 184.886 157.211 185.092 157.387C185.297 157.556 185.4 157.787 185.4 158.08C185.4 158.366 185.297 158.597 185.092 158.773C184.886 158.942 184.615 159.026 184.278 159.026ZM193.437 163.448C193.364 163.983 193.155 164.456 192.81 164.867C192.473 165.278 192.036 165.597 191.501 165.824C190.966 166.051 190.368 166.165 189.708 166.165C188.96 166.165 188.3 166.029 187.728 165.758C187.163 165.479 186.72 165.091 186.397 164.592C186.082 164.093 185.924 163.521 185.924 162.876C185.924 162.223 186.082 161.651 186.397 161.16C186.72 160.661 187.163 160.273 187.728 159.994C188.3 159.715 188.96 159.576 189.708 159.576C190.368 159.576 190.966 159.693 191.501 159.928C192.036 160.155 192.473 160.474 192.81 160.885C193.155 161.288 193.364 161.761 193.437 162.304H191.6C191.505 161.879 191.285 161.552 190.94 161.325C190.603 161.09 190.192 160.973 189.708 160.973C189.319 160.973 188.978 161.05 188.685 161.204C188.399 161.351 188.179 161.567 188.025 161.853C187.871 162.132 187.794 162.473 187.794 162.876C187.794 163.272 187.871 163.613 188.025 163.899C188.179 164.178 188.399 164.394 188.685 164.548C188.978 164.695 189.319 164.768 189.708 164.768C190.199 164.768 190.614 164.647 190.951 164.405C191.296 164.163 191.512 163.844 191.6 163.448H193.437ZM194.095 159.675L195.008 159.851L195.932 159.675V166H194.095V159.675ZM195.008 159.026C194.678 159.026 194.407 158.942 194.194 158.773C193.989 158.597 193.886 158.366 193.886 158.08C193.886 157.787 193.989 157.556 194.194 157.387C194.407 157.211 194.678 157.123 195.008 157.123C195.346 157.123 195.617 157.211 195.822 157.387C196.028 157.556 196.13 157.787 196.13 158.08C196.13 158.366 196.028 158.597 195.822 158.773C195.617 158.942 195.346 159.026 195.008 159.026ZM196.985 159.741H198.822V161.732L198.745 161.974V163.481L198.822 163.932V167.815H196.985V159.741ZM198.184 162.876C198.308 162.209 198.525 161.629 198.833 161.138C199.148 160.639 199.54 160.254 200.01 159.983C200.486 159.712 201.014 159.576 201.594 159.576C202.21 159.576 202.749 159.715 203.211 159.994C203.68 160.265 204.047 160.65 204.311 161.149C204.575 161.64 204.707 162.216 204.707 162.876C204.707 163.529 204.575 164.104 204.311 164.603C204.047 165.094 203.68 165.479 203.211 165.758C202.749 166.029 202.21 166.165 201.594 166.165C201.007 166.165 200.479 166.029 200.01 165.758C199.548 165.487 199.159 165.105 198.844 164.614C198.528 164.115 198.308 163.536 198.184 162.876ZM202.848 162.876C202.848 162.509 202.771 162.187 202.617 161.908C202.47 161.622 202.265 161.402 202.001 161.248C201.737 161.087 201.432 161.006 201.088 161.006C200.743 161.006 200.417 161.087 200.109 161.248C199.801 161.402 199.529 161.622 199.295 161.908C199.067 162.187 198.888 162.509 198.756 162.876C198.888 163.243 199.067 163.565 199.295 163.844C199.529 164.123 199.801 164.343 200.109 164.504C200.417 164.658 200.743 164.735 201.088 164.735C201.432 164.735 201.737 164.658 202.001 164.504C202.265 164.343 202.47 164.123 202.617 163.844C202.771 163.565 202.848 163.243 202.848 162.876ZM211.18 166L210.916 163.712L211.213 162.876L210.916 162.051L211.18 159.741H213.083L212.72 162.876L213.083 166H211.18ZM211.664 162.876C211.547 163.536 211.331 164.115 211.015 164.614C210.707 165.105 210.315 165.487 209.838 165.758C209.369 166.029 208.841 166.165 208.254 166.165C207.646 166.165 207.107 166.029 206.637 165.758C206.168 165.479 205.801 165.094 205.537 164.603C205.281 164.104 205.152 163.529 205.152 162.876C205.152 162.216 205.281 161.64 205.537 161.149C205.801 160.65 206.168 160.265 206.637 159.994C207.107 159.715 207.646 159.576 208.254 159.576C208.841 159.576 209.369 159.712 209.838 159.983C210.315 160.254 210.711 160.639 211.026 161.138C211.342 161.629 211.554 162.209 211.664 162.876ZM207.011 162.876C207.011 163.243 207.085 163.565 207.231 163.844C207.385 164.123 207.594 164.343 207.858 164.504C208.122 164.658 208.427 164.735 208.771 164.735C209.116 164.735 209.439 164.658 209.739 164.504C210.047 164.343 210.319 164.123 210.553 163.844C210.788 163.565 210.971 163.243 211.103 162.876C210.971 162.509 210.788 162.187 210.553 161.908C210.319 161.622 210.047 161.402 209.739 161.248C209.439 161.087 209.116 161.006 208.771 161.006C208.427 161.006 208.122 161.087 207.858 161.248C207.594 161.402 207.385 161.622 207.231 161.908C207.085 162.187 207.011 162.509 207.011 162.876ZM213.34 161.127V160.313L214.649 159.884L215.43 158.091H216.486V159.741H219.258V161.127H216.486V163.404C216.486 163.888 216.585 164.229 216.783 164.427C216.988 164.618 217.34 164.713 217.839 164.713C218.154 164.713 218.433 164.684 218.675 164.625C218.917 164.566 219.148 164.482 219.368 164.372V165.802C219.155 165.89 218.873 165.971 218.521 166.044C218.169 166.125 217.806 166.165 217.432 166.165C216.779 166.165 216.248 166.062 215.837 165.857C215.434 165.644 215.133 165.351 214.935 164.977C214.744 164.603 214.649 164.167 214.649 163.668V161.127H213.34ZM223.342 166.165C222.601 166.165 221.937 166.029 221.351 165.758C220.771 165.479 220.313 165.091 219.976 164.592C219.646 164.093 219.481 163.514 219.481 162.854C219.481 162.201 219.638 161.629 219.954 161.138C220.276 160.647 220.716 160.265 221.274 159.994C221.831 159.715 222.465 159.576 223.177 159.576C223.903 159.576 224.526 159.737 225.047 160.06C225.567 160.375 225.967 160.823 226.246 161.402C226.532 161.981 226.675 162.663 226.675 163.448H220.955V162.227H225.685L224.97 162.667C224.94 162.3 224.849 161.989 224.695 161.732C224.548 161.475 224.346 161.277 224.09 161.138C223.833 160.999 223.532 160.929 223.188 160.929C222.814 160.929 222.487 161.006 222.209 161.16C221.937 161.307 221.725 161.516 221.571 161.787C221.424 162.051 221.351 162.363 221.351 162.722C221.351 163.155 221.446 163.525 221.637 163.833C221.827 164.141 222.106 164.376 222.473 164.537C222.839 164.698 223.283 164.779 223.804 164.779C224.273 164.779 224.746 164.713 225.223 164.581C225.699 164.442 226.128 164.247 226.51 163.998V165.23C226.099 165.523 225.619 165.754 225.069 165.923C224.526 166.084 223.95 166.165 223.342 166.165ZM227.141 167.573L228.164 165.406L228.263 166.077C228.065 166.077 227.882 166.029 227.713 165.934C227.552 165.831 227.423 165.699 227.328 165.538C227.233 165.377 227.185 165.197 227.185 164.999C227.185 164.801 227.233 164.621 227.328 164.46C227.423 164.299 227.552 164.174 227.713 164.086C227.882 163.991 228.065 163.943 228.263 163.943C228.476 163.943 228.663 163.991 228.824 164.086C228.985 164.181 229.114 164.313 229.209 164.482C229.304 164.643 229.352 164.83 229.352 165.043C229.352 165.234 229.304 165.439 229.209 165.659C229.121 165.879 228.967 166.161 228.747 166.506L228.087 167.573H227.141ZM232.124 163.305H234.016C234.06 163.584 234.181 163.829 234.379 164.042C234.585 164.247 234.856 164.409 235.193 164.526C235.538 164.636 235.934 164.691 236.381 164.691C237.034 164.691 237.547 164.599 237.921 164.416C238.303 164.225 238.493 163.961 238.493 163.624C238.493 163.36 238.383 163.158 238.163 163.019C237.951 162.872 237.551 162.766 236.964 162.7L235.303 162.513C234.233 162.396 233.455 162.146 232.971 161.765C232.495 161.376 232.256 160.837 232.256 160.148C232.256 159.605 232.414 159.143 232.729 158.762C233.052 158.381 233.503 158.091 234.082 157.893C234.662 157.688 235.344 157.585 236.128 157.585C236.891 157.585 237.569 157.699 238.163 157.926C238.757 158.146 239.23 158.458 239.582 158.861C239.934 159.257 240.125 159.723 240.154 160.258H238.262C238.226 160.016 238.116 159.807 237.932 159.631C237.756 159.448 237.511 159.308 237.195 159.213C236.88 159.11 236.51 159.059 236.084 159.059C235.49 159.059 235.017 159.147 234.665 159.323C234.313 159.499 234.137 159.748 234.137 160.071C234.137 160.32 234.24 160.515 234.445 160.654C234.658 160.786 235.028 160.885 235.556 160.951L237.283 161.16C238.046 161.241 238.651 161.373 239.098 161.556C239.553 161.732 239.876 161.97 240.066 162.271C240.264 162.572 240.363 162.953 240.363 163.415C240.363 163.965 240.195 164.449 239.857 164.867C239.527 165.278 239.062 165.597 238.46 165.824C237.859 166.051 237.155 166.165 236.348 166.165C235.527 166.165 234.805 166.048 234.181 165.813C233.558 165.571 233.067 165.237 232.707 164.812C232.348 164.379 232.154 163.877 232.124 163.305ZM241.111 157.53H242.948V166H241.111V157.53ZM245.335 159.576C245.929 159.576 246.435 159.697 246.853 159.939C247.271 160.174 247.59 160.511 247.81 160.951C248.03 161.391 248.14 161.915 248.14 162.524V166H246.303V162.799C246.303 162.234 246.168 161.809 245.896 161.523C245.625 161.23 245.233 161.083 244.719 161.083C244.36 161.083 244.045 161.164 243.773 161.325C243.509 161.479 243.304 161.695 243.157 161.974C243.018 162.253 242.948 162.586 242.948 162.975L242.343 162.656C242.424 161.996 242.6 161.439 242.871 160.984C243.15 160.529 243.502 160.181 243.927 159.939C244.353 159.697 244.822 159.576 245.335 159.576ZM249.103 159.675L250.016 159.851L250.94 159.675V166H249.103V159.675ZM250.016 159.026C249.686 159.026 249.415 158.942 249.202 158.773C248.997 158.597 248.894 158.366 248.894 158.08C248.894 157.787 248.997 157.556 249.202 157.387C249.415 157.211 249.686 157.123 250.016 157.123C250.353 157.123 250.625 157.211 250.83 157.387C251.035 157.556 251.138 157.787 251.138 158.08C251.138 158.366 251.035 158.597 250.83 158.773C250.625 158.942 250.353 159.026 250.016 159.026ZM251.695 159.741H253.532L253.928 162.128V166H252.091V161.853L251.695 159.741ZM256.315 159.576C256.909 159.576 257.415 159.697 257.833 159.939C258.251 160.174 258.57 160.511 258.79 160.951C259.01 161.391 259.12 161.915 259.12 162.524V166H257.283V162.799C257.283 162.234 257.148 161.809 256.876 161.523C256.605 161.23 256.209 161.083 255.688 161.083C255.336 161.083 255.025 161.164 254.753 161.325C254.489 161.479 254.284 161.695 254.137 161.974C253.998 162.253 253.928 162.586 253.928 162.975L253.323 162.656C253.397 161.996 253.573 161.439 253.851 160.984C254.13 160.529 254.482 160.181 254.907 159.939C255.333 159.697 255.802 159.576 256.315 159.576ZM263.612 166.165C262.871 166.165 262.208 166.029 261.621 165.758C261.042 165.479 260.583 165.091 260.246 164.592C259.916 164.093 259.751 163.514 259.751 162.854C259.751 162.201 259.909 161.629 260.224 161.138C260.547 160.647 260.987 160.265 261.544 159.994C262.101 159.715 262.736 159.576 263.447 159.576C264.173 159.576 264.796 159.737 265.317 160.06C265.838 160.375 266.237 160.823 266.516 161.402C266.802 161.981 266.945 162.663 266.945 163.448H261.225V162.227H265.955L265.24 162.667C265.211 162.3 265.119 161.989 264.965 161.732C264.818 161.475 264.617 161.277 264.36 161.138C264.103 160.999 263.803 160.929 263.458 160.929C263.084 160.929 262.758 161.006 262.479 161.16C262.208 161.307 261.995 161.516 261.841 161.787C261.694 162.051 261.621 162.363 261.621 162.722C261.621 163.155 261.716 163.525 261.907 163.833C262.098 164.141 262.376 164.376 262.743 164.537C263.11 164.698 263.553 164.779 264.074 164.779C264.543 164.779 265.016 164.713 265.493 164.581C265.97 164.442 266.399 164.247 266.78 163.998V165.23C266.369 165.523 265.889 165.754 265.339 165.923C264.796 166.084 264.221 166.165 263.612 166.165ZM267.697 157.75H269.611L269.303 163.283H268.005L267.697 157.75ZM268.654 166.099C268.339 166.099 268.082 166.007 267.884 165.824C267.686 165.633 267.587 165.391 267.587 165.098C267.587 164.797 267.686 164.555 267.884 164.372C268.082 164.181 268.339 164.086 268.654 164.086C268.969 164.086 269.226 164.181 269.424 164.372C269.622 164.555 269.721 164.797 269.721 165.098C269.721 165.391 269.622 165.633 269.424 165.824C269.226 166.007 268.969 166.099 268.654 166.099Z" fill="white"/>
<g filter="url(#filter2_d_70_427)">
<rect x="36" y="224" width="304" height="464" rx="21" fill="#FAF9F6"/>
</g>
<path d="M151.474 279.325H154.054C154.114 279.705 154.279 280.04 154.549 280.33C154.829 280.61 155.199 280.83 155.659 280.99C156.129 281.14 156.669 281.215 157.279 281.215C158.169 281.215 158.869 281.09 159.379 280.84C159.899 280.58 160.159 280.22 160.159 279.76C160.159 279.4 160.009 279.125 159.709 278.935C159.419 278.735 158.874 278.59 158.074 278.5L155.809 278.245C154.349 278.085 153.289 277.745 152.629 277.225C151.979 276.695 151.654 275.96 151.654 275.02C151.654 274.28 151.869 273.65 152.299 273.13C152.739 272.61 153.354 272.215 154.144 271.945C154.934 271.665 155.864 271.525 156.934 271.525C157.974 271.525 158.899 271.68 159.709 271.99C160.519 272.29 161.164 272.715 161.644 273.265C162.124 273.805 162.384 274.44 162.424 275.17H159.844C159.794 274.84 159.644 274.555 159.394 274.315C159.154 274.065 158.819 273.875 158.389 273.745C157.959 273.605 157.454 273.535 156.874 273.535C156.064 273.535 155.419 273.655 154.939 273.895C154.459 274.135 154.219 274.475 154.219 274.915C154.219 275.255 154.359 275.52 154.639 275.71C154.929 275.89 155.434 276.025 156.154 276.115L158.509 276.4C159.549 276.51 160.374 276.69 160.984 276.94C161.604 277.18 162.044 277.505 162.304 277.915C162.574 278.325 162.709 278.845 162.709 279.475C162.709 280.225 162.479 280.885 162.019 281.455C161.569 282.015 160.934 282.45 160.114 282.76C159.294 283.07 158.334 283.225 157.234 283.225C156.114 283.225 155.129 283.065 154.279 282.745C153.429 282.415 152.759 281.96 152.269 281.38C151.779 280.79 151.514 280.105 151.474 279.325ZM162.936 276.355V275.245L164.721 274.66L165.786 272.215H167.226V274.465H171.006V276.355H167.226V279.46C167.226 280.12 167.361 280.585 167.631 280.855C167.911 281.115 168.391 281.245 169.071 281.245C169.501 281.245 169.881 281.205 170.211 281.125C170.541 281.045 170.856 280.93 171.156 280.78V282.73C170.866 282.85 170.481 282.96 170.001 283.06C169.521 283.17 169.026 283.225 168.516 283.225C167.626 283.225 166.901 283.085 166.341 282.805C165.791 282.515 165.381 282.115 165.111 281.605C164.851 281.095 164.721 280.5 164.721 279.82V276.355H162.936ZM175.775 283.225C174.985 283.225 174.31 283.065 173.75 282.745C173.2 282.415 172.775 281.95 172.475 281.35C172.185 280.75 172.04 280.04 172.04 279.22V274.465H174.545V278.845C174.545 279.605 174.725 280.185 175.085 280.585C175.445 280.975 175.955 281.17 176.615 281.17C177.105 281.17 177.52 281.07 177.86 280.87C178.21 280.66 178.48 280.36 178.67 279.97C178.86 279.58 178.955 279.125 178.955 278.605L179.765 279.04C179.665 279.92 179.43 280.675 179.06 281.305C178.69 281.925 178.22 282.4 177.65 282.73C177.09 283.06 176.465 283.225 175.775 283.225ZM179.48 283L178.955 279.76V274.465H181.46V280.135L181.985 283H179.48ZM190.966 283L190.606 279.775L191.086 278.755L190.621 277.51L191.296 271.45H193.891L193.066 278.56L193.561 283H190.966ZM191.581 278.74C191.421 279.64 191.126 280.43 190.696 281.11C190.276 281.78 189.741 282.3 189.091 282.67C188.451 283.04 187.731 283.225 186.931 283.225C186.101 283.225 185.366 283.04 184.726 282.67C184.086 282.29 183.586 281.765 183.226 281.095C182.876 280.415 182.701 279.63 182.701 278.74C182.701 277.84 182.876 277.055 183.226 276.385C183.586 275.705 184.086 275.18 184.726 274.81C185.366 274.43 186.101 274.24 186.931 274.24C187.731 274.24 188.451 274.425 189.091 274.795C189.741 275.165 190.281 275.69 190.711 276.37C191.141 277.04 191.431 277.83 191.581 278.74ZM185.236 278.74C185.236 279.24 185.336 279.68 185.536 280.06C185.746 280.44 186.031 280.74 186.391 280.96C186.751 281.17 187.166 281.275 187.636 281.275C188.106 281.275 188.546 281.17 188.956 280.96C189.376 280.74 189.746 280.44 190.066 280.06C190.386 279.68 190.636 279.24 190.816 278.74C190.636 278.24 190.386 277.8 190.066 277.42C189.746 277.03 189.376 276.73 188.956 276.52C188.546 276.3 188.106 276.19 187.636 276.19C187.166 276.19 186.751 276.3 186.391 276.52C186.031 276.73 185.746 277.03 185.536 277.42C185.336 277.8 185.236 278.24 185.236 278.74ZM199.672 283.225C198.662 283.225 197.757 283.04 196.957 282.67C196.167 282.29 195.542 281.76 195.082 281.08C194.632 280.4 194.407 279.61 194.407 278.71C194.407 277.82 194.622 277.04 195.052 276.37C195.492 275.7 196.092 275.18 196.852 274.81C197.612 274.43 198.477 274.24 199.447 274.24C200.437 274.24 201.287 274.46 201.997 274.9C202.707 275.33 203.252 275.94 203.632 276.73C204.022 277.52 204.217 278.45 204.217 279.52H196.417V277.855H202.867L201.892 278.455C201.852 277.955 201.727 277.53 201.517 277.18C201.317 276.83 201.042 276.56 200.692 276.37C200.342 276.18 199.932 276.085 199.462 276.085C198.952 276.085 198.507 276.19 198.127 276.4C197.757 276.6 197.467 276.885 197.257 277.255C197.057 277.615 196.957 278.04 196.957 278.53C196.957 279.12 197.087 279.625 197.347 280.045C197.607 280.465 197.987 280.785 198.487 281.005C198.987 281.225 199.592 281.335 200.302 281.335C200.942 281.335 201.587 281.245 202.237 281.065C202.887 280.875 203.472 280.61 203.992 280.27V281.95C203.432 282.35 202.777 282.665 202.027 282.895C201.287 283.115 200.502 283.225 199.672 283.225ZM204.915 274.465H207.42L207.96 277.72V283H205.455V277.345L204.915 274.465ZM211.215 274.24C212.025 274.24 212.715 274.405 213.285 274.735C213.855 275.055 214.29 275.515 214.59 276.115C214.89 276.715 215.04 277.43 215.04 278.26V283H212.535V278.635C212.535 277.865 212.35 277.285 211.98 276.895C211.61 276.495 211.07 276.295 210.36 276.295C209.88 276.295 209.455 276.405 209.085 276.625C208.725 276.835 208.445 277.13 208.245 277.51C208.055 277.89 207.96 278.345 207.96 278.875L207.135 278.44C207.235 277.54 207.475 276.78 207.855 276.16C208.235 275.54 208.715 275.065 209.295 274.735C209.875 274.405 210.515 274.24 211.215 274.24ZM215.469 276.355V275.245L217.254 274.66L218.319 272.215H219.759V274.465H223.539V276.355H219.759V279.46C219.759 280.12 219.894 280.585 220.164 280.855C220.444 281.115 220.924 281.245 221.604 281.245C222.034 281.245 222.414 281.205 222.744 281.125C223.074 281.045 223.389 280.93 223.689 280.78V282.73C223.399 282.85 223.014 282.96 222.534 283.06C222.054 283.17 221.559 283.225 221.049 283.225C220.159 283.225 219.434 283.085 218.874 282.805C218.324 282.515 217.914 282.115 217.644 281.605C217.384 281.095 217.254 280.5 217.254 279.82V276.355H215.469Z" fill="#15397E"/>
<path d="M161.591 434.63V432.56H169.391V434.63H161.591ZM167.186 425.75L172.451 437H169.736L165.131 426.785H165.971L161.366 437H158.651L163.916 425.75H167.186ZM180.496 437L180.136 433.775L180.616 432.755L180.151 431.51L180.826 425.45H183.421L182.596 432.56L183.091 437H180.496ZM181.111 432.74C180.951 433.64 180.656 434.43 180.226 435.11C179.806 435.78 179.271 436.3 178.621 436.67C177.981 437.04 177.261 437.225 176.461 437.225C175.631 437.225 174.896 437.04 174.256 436.67C173.616 436.29 173.116 435.765 172.756 435.095C172.406 434.415 172.231 433.63 172.231 432.74C172.231 431.84 172.406 431.055 172.756 430.385C173.116 429.705 173.616 429.18 174.256 428.81C174.896 428.43 175.631 428.24 176.461 428.24C177.261 428.24 177.981 428.425 178.621 428.795C179.271 429.165 179.811 429.69 180.241 430.37C180.671 431.04 180.961 431.83 181.111 432.74ZM174.766 432.74C174.766 433.24 174.866 433.68 175.066 434.06C175.276 434.44 175.561 434.74 175.921 434.96C176.281 435.17 176.696 435.275 177.166 435.275C177.636 435.275 178.076 435.17 178.486 434.96C178.906 434.74 179.276 434.44 179.596 434.06C179.916 433.68 180.166 433.24 180.346 432.74C180.166 432.24 179.916 431.8 179.596 431.42C179.276 431.03 178.906 430.73 178.486 430.52C178.076 430.3 177.636 430.19 177.166 430.19C176.696 430.19 176.281 430.3 175.921 430.52C175.561 430.73 175.276 431.03 175.066 431.42C174.866 431.8 174.766 432.24 174.766 432.74ZM184.012 428.465H186.517L187.057 431.72V437H184.552V431.345L184.012 428.465ZM190.102 428.24C190.862 428.24 191.512 428.405 192.052 428.735C192.592 429.055 193.002 429.515 193.282 430.115C193.572 430.715 193.717 431.43 193.717 432.26V437H191.212V432.635C191.212 431.865 191.042 431.285 190.702 430.895C190.372 430.495 189.887 430.295 189.247 430.295C188.797 430.295 188.407 430.405 188.077 430.625C187.747 430.835 187.492 431.13 187.312 431.51C187.142 431.89 187.057 432.345 187.057 432.875L186.232 432.44C186.332 431.54 186.562 430.78 186.922 430.16C187.282 429.54 187.732 429.065 188.272 428.735C188.822 428.405 189.432 428.24 190.102 428.24ZM196.747 428.24C197.507 428.24 198.157 428.405 198.697 428.735C199.247 429.055 199.662 429.515 199.942 430.115C200.232 430.715 200.377 431.43 200.377 432.26V437H197.872V432.635C197.872 431.865 197.702 431.285 197.362 430.895C197.032 430.495 196.547 430.295 195.907 430.295C195.457 430.295 195.067 430.405 194.737 430.625C194.407 430.835 194.152 431.13 193.972 431.51C193.802 431.89 193.717 432.345 193.717 432.875L192.892 432.44C192.992 431.54 193.222 430.78 193.582 430.16C193.942 429.54 194.392 429.065 194.932 428.735C195.482 428.405 196.087 428.24 196.747 428.24ZM201.808 428.375L203.053 428.615L204.313 428.375V437H201.808V428.375ZM203.053 427.49C202.603 427.49 202.233 427.375 201.943 427.145C201.663 426.905 201.523 426.59 201.523 426.2C201.523 425.8 201.663 425.485 201.943 425.255C202.233 425.015 202.603 424.895 203.053 424.895C203.513 424.895 203.883 425.015 204.163 425.255C204.443 425.485 204.583 425.8 204.583 426.2C204.583 426.59 204.443 426.905 204.163 427.145C203.883 427.375 203.513 427.49 203.053 427.49ZM205.464 428.465H207.969L208.509 431.72V437H206.004V431.345L205.464 428.465ZM211.764 428.24C212.574 428.24 213.264 428.405 213.834 428.735C214.404 429.055 214.839 429.515 215.139 430.115C215.439 430.715 215.589 431.43 215.589 432.26V437H213.084V432.635C213.084 431.865 212.899 431.285 212.529 430.895C212.159 430.495 211.619 430.295 210.909 430.295C210.429 430.295 210.004 430.405 209.634 430.625C209.274 430.835 208.994 431.13 208.794 431.51C208.604 431.89 208.509 432.345 208.509 432.875L207.684 432.44C207.784 431.54 208.024 430.78 208.404 430.16C208.784 429.54 209.264 429.065 209.844 428.735C210.424 428.405 211.064 428.24 211.764 428.24Z" fill="#15397E"/>
<g filter="url(#filter3_d_70_427)">
<rect x="70" y="311" width="237" height="49" rx="10" fill="url(#paint1_linear_70_427)"/>
<path d="M99.2954 337.63V335.56H107.095V337.63H99.2954ZM104.89 328.75L110.155 340H107.44L102.835 329.785H103.675L99.0704 340H96.3554L101.62 328.75H104.89ZM113.999 340.225C113.209 340.225 112.534 340.065 111.974 339.745C111.424 339.415 110.999 338.95 110.699 338.35C110.409 337.75 110.264 337.04 110.264 336.22V331.465H112.769V335.845C112.769 336.605 112.949 337.185 113.309 337.585C113.669 337.975 114.179 338.17 114.839 338.17C115.329 338.17 115.744 338.07 116.084 337.87C116.434 337.66 116.704 337.36 116.894 336.97C117.084 336.58 117.179 336.125 117.179 335.605L117.989 336.04C117.889 336.92 117.654 337.675 117.284 338.305C116.914 338.925 116.444 339.4 115.874 339.73C115.314 340.06 114.689 340.225 113.999 340.225ZM117.704 340L117.179 336.76V331.465H119.684V337.135L120.209 340H117.704ZM120.474 333.355V332.245L122.259 331.66L123.324 329.215H124.764V331.465H128.544V333.355H124.764V336.46C124.764 337.12 124.899 337.585 125.169 337.855C125.449 338.115 125.929 338.245 126.609 338.245C127.039 338.245 127.419 338.205 127.749 338.125C128.079 338.045 128.394 337.93 128.694 337.78V339.73C128.404 339.85 128.019 339.96 127.539 340.06C127.059 340.17 126.564 340.225 126.054 340.225C125.164 340.225 124.439 340.085 123.879 339.805C123.329 339.515 122.919 339.115 122.649 338.605C122.389 338.095 122.259 337.5 122.259 336.82V333.355H120.474ZM129.697 328.45H132.202V340H129.697V328.45ZM135.457 331.24C136.267 331.24 136.957 331.405 137.527 331.735C138.097 332.055 138.532 332.515 138.832 333.115C139.132 333.715 139.282 334.43 139.282 335.26V340H136.777V335.635C136.777 334.865 136.592 334.285 136.222 333.895C135.852 333.495 135.317 333.295 134.617 333.295C134.127 333.295 133.697 333.405 133.327 333.625C132.967 333.835 132.687 334.13 132.487 334.51C132.297 334.89 132.202 335.345 132.202 335.875L131.377 335.44C131.487 334.54 131.727 333.78 132.097 333.16C132.477 332.54 132.957 332.065 133.537 331.735C134.117 331.405 134.757 331.24 135.457 331.24ZM145.532 340.225C144.522 340.225 143.617 340.04 142.817 339.67C142.027 339.29 141.402 338.76 140.942 338.08C140.492 337.4 140.267 336.61 140.267 335.71C140.267 334.82 140.482 334.04 140.912 333.37C141.352 332.7 141.952 332.18 142.712 331.81C143.472 331.43 144.337 331.24 145.307 331.24C146.297 331.24 147.147 331.46 147.857 331.9C148.567 332.33 149.112 332.94 149.492 333.73C149.882 334.52 150.077 335.45 150.077 336.52H142.277V334.855H148.727L147.752 335.455C147.712 334.955 147.587 334.53 147.377 334.18C147.177 333.83 146.902 333.56 146.552 333.37C146.202 333.18 145.792 333.085 145.322 333.085C144.812 333.085 144.367 333.19 143.987 333.4C143.617 333.6 143.327 333.885 143.117 334.255C142.917 334.615 142.817 335.04 142.817 335.53C142.817 336.12 142.947 336.625 143.207 337.045C143.467 337.465 143.847 337.785 144.347 338.005C144.847 338.225 145.452 338.335 146.162 338.335C146.802 338.335 147.447 338.245 148.097 338.065C148.747 337.875 149.332 337.61 149.852 337.27V338.95C149.292 339.35 148.637 339.665 147.887 339.895C147.147 340.115 146.362 340.225 145.532 340.225ZM150.774 331.465H153.279L153.819 334.72V340H151.314V334.345L150.774 331.465ZM157.074 331.24C157.884 331.24 158.574 331.405 159.144 331.735C159.714 332.055 160.149 332.515 160.449 333.115C160.749 333.715 160.899 334.43 160.899 335.26V340H158.394V335.635C158.394 334.865 158.209 334.285 157.839 333.895C157.469 333.495 156.929 333.295 156.219 333.295C155.739 333.295 155.314 333.405 154.944 333.625C154.584 333.835 154.304 334.13 154.104 334.51C153.914 334.89 153.819 335.345 153.819 335.875L152.994 335.44C153.094 334.54 153.334 333.78 153.714 333.16C154.094 332.54 154.574 332.065 155.154 331.735C155.734 331.405 156.374 331.24 157.074 331.24ZM161.328 333.355V332.245L163.113 331.66L164.178 329.215H165.618V331.465H169.398V333.355H165.618V336.46C165.618 337.12 165.753 337.585 166.023 337.855C166.303 338.115 166.783 338.245 167.463 338.245C167.893 338.245 168.273 338.205 168.603 338.125C168.933 338.045 169.248 337.93 169.548 337.78V339.73C169.258 339.85 168.873 339.96 168.393 340.06C167.913 340.17 167.418 340.225 166.908 340.225C166.018 340.225 165.293 340.085 164.733 339.805C164.183 339.515 163.773 339.115 163.503 338.605C163.243 338.095 163.113 337.5 163.113 336.82V333.355H161.328ZM170.552 331.375L171.797 331.615L173.057 331.375V340H170.552V331.375ZM171.797 330.49C171.347 330.49 170.977 330.375 170.687 330.145C170.407 329.905 170.267 329.59 170.267 329.2C170.267 328.8 170.407 328.485 170.687 328.255C170.977 328.015 171.347 327.895 171.797 327.895C172.257 327.895 172.627 328.015 172.907 328.255C173.187 328.485 173.327 328.8 173.327 329.2C173.327 329.59 173.187 329.905 172.907 330.145C172.627 330.375 172.257 330.49 171.797 330.49ZM182.428 340L182.068 336.88L182.473 335.74L182.068 334.615L182.428 331.465H185.023L184.528 335.74L185.023 340H182.428ZM183.088 335.74C182.928 336.64 182.633 337.43 182.203 338.11C181.783 338.78 181.248 339.3 180.598 339.67C179.958 340.04 179.238 340.225 178.438 340.225C177.608 340.225 176.873 340.04 176.233 339.67C175.593 339.29 175.093 338.765 174.733 338.095C174.383 337.415 174.208 336.63 174.208 335.74C174.208 334.84 174.383 334.055 174.733 333.385C175.093 332.705 175.593 332.18 176.233 331.81C176.873 331.43 177.608 331.24 178.438 331.24C179.238 331.24 179.958 331.425 180.598 331.795C181.248 332.165 181.788 332.69 182.218 333.37C182.648 334.04 182.938 334.83 183.088 335.74ZM176.743 335.74C176.743 336.24 176.843 336.68 177.043 337.06C177.253 337.44 177.538 337.74 177.898 337.96C178.258 338.17 178.673 338.275 179.143 338.275C179.613 338.275 180.053 338.17 180.463 337.96C180.883 337.74 181.253 337.44 181.573 337.06C181.893 336.68 182.143 336.24 182.323 335.74C182.143 335.24 181.893 334.8 181.573 334.42C181.253 334.03 180.883 333.73 180.463 333.52C180.053 333.3 179.613 333.19 179.143 333.19C178.673 333.19 178.258 333.3 177.898 333.52C177.538 333.73 177.253 334.03 177.043 334.42C176.843 334.8 176.743 335.24 176.743 335.74ZM185.494 333.355V332.245L187.279 331.66L188.344 329.215H189.784V331.465H193.564V333.355H189.784V336.46C189.784 337.12 189.919 337.585 190.189 337.855C190.469 338.115 190.949 338.245 191.629 338.245C192.059 338.245 192.439 338.205 192.769 338.125C193.099 338.045 193.414 337.93 193.714 337.78V339.73C193.424 339.85 193.039 339.96 192.559 340.06C192.079 340.17 191.584 340.225 191.074 340.225C190.184 340.225 189.459 340.085 188.899 339.805C188.349 339.515 187.939 339.115 187.669 338.605C187.409 338.095 187.279 337.5 187.279 336.82V333.355H185.494ZM199.254 340.225C198.244 340.225 197.339 340.04 196.539 339.67C195.749 339.29 195.124 338.76 194.664 338.08C194.214 337.4 193.989 336.61 193.989 335.71C193.989 334.82 194.204 334.04 194.634 333.37C195.074 332.7 195.674 332.18 196.434 331.81C197.194 331.43 198.059 331.24 199.029 331.24C200.019 331.24 200.869 331.46 201.579 331.9C202.289 332.33 202.834 332.94 203.214 333.73C203.604 334.52 203.799 335.45 203.799 336.52H195.999V334.855H202.449L201.474 335.455C201.434 334.955 201.309 334.53 201.099 334.18C200.899 333.83 200.624 333.56 200.274 333.37C199.924 333.18 199.514 333.085 199.044 333.085C198.534 333.085 198.089 333.19 197.709 333.4C197.339 333.6 197.049 333.885 196.839 334.255C196.639 334.615 196.539 335.04 196.539 335.53C196.539 336.12 196.669 336.625 196.929 337.045C197.189 337.465 197.569 337.785 198.069 338.005C198.569 338.225 199.174 338.335 199.884 338.335C200.524 338.335 201.169 338.245 201.819 338.065C202.469 337.875 203.054 337.61 203.574 337.27V338.95C203.014 339.35 202.359 339.665 201.609 339.895C200.869 340.115 200.084 340.225 199.254 340.225ZM219.396 338.635H218.571L221.241 331.465H223.746L220.446 340H217.881L215.031 332.635H215.931L213.036 340H210.471L207.171 331.465H209.706L212.391 338.635H211.536L214.266 331.465H216.711L219.396 338.635ZM224.479 331.375L225.724 331.615L226.984 331.375V340H224.479V331.375ZM225.724 330.49C225.274 330.49 224.904 330.375 224.614 330.145C224.334 329.905 224.194 329.59 224.194 329.2C224.194 328.8 224.334 328.485 224.614 328.255C224.904 328.015 225.274 327.895 225.724 327.895C226.184 327.895 226.554 328.015 226.834 328.255C227.114 328.485 227.254 328.8 227.254 329.2C227.254 329.59 227.114 329.905 226.834 330.145C226.554 330.375 226.184 330.49 225.724 330.49ZM227.671 333.355V332.245L229.456 331.66L230.521 329.215H231.961V331.465H235.741V333.355H231.961V336.46C231.961 337.12 232.096 337.585 232.366 337.855C232.646 338.115 233.126 338.245 233.806 338.245C234.236 338.245 234.616 338.205 234.946 338.125C235.276 338.045 235.591 337.93 235.891 337.78V339.73C235.601 339.85 235.216 339.96 234.736 340.06C234.256 340.17 233.761 340.225 233.251 340.225C232.361 340.225 231.636 340.085 231.076 339.805C230.526 339.515 230.116 339.115 229.846 338.605C229.586 338.095 229.456 337.5 229.456 336.82V333.355H227.671ZM236.894 328.45H239.399V340H236.894V328.45ZM242.654 331.24C243.464 331.24 244.154 331.405 244.724 331.735C245.294 332.055 245.729 332.515 246.029 333.115C246.329 333.715 246.479 334.43 246.479 335.26V340H243.974V335.635C243.974 334.865 243.789 334.285 243.419 333.895C243.049 333.495 242.514 333.295 241.814 333.295C241.324 333.295 240.894 333.405 240.524 333.625C240.164 333.835 239.884 334.13 239.684 334.51C239.494 334.89 239.399 335.345 239.399 335.875L238.574 335.44C238.684 334.54 238.924 333.78 239.294 333.16C239.674 332.54 240.154 332.065 240.734 331.735C241.314 331.405 241.954 331.24 242.654 331.24ZM260.567 328.75V340H258.047V329.845H258.917L252.767 336.655L252.737 335.815H262.487V337.765H250.832V335.965L257.342 328.75H260.567ZM263.102 332.71C263.162 331.85 263.442 331.11 263.942 330.49C264.442 329.86 265.102 329.375 265.922 329.035C266.752 328.695 267.692 328.525 268.742 328.525C269.742 328.525 270.617 328.68 271.367 328.99C272.117 329.29 272.702 329.715 273.122 330.265C273.542 330.815 273.752 331.455 273.752 332.185C273.752 332.745 273.607 333.265 273.317 333.745C273.027 334.225 272.562 334.71 271.922 335.2C271.292 335.68 270.452 336.2 269.402 336.76L265.997 338.635L265.802 337.945H274.067V340H263.267V338.2L268.082 335.38C268.882 334.92 269.507 334.525 269.957 334.195C270.407 333.855 270.727 333.54 270.917 333.25C271.107 332.96 271.202 332.65 271.202 332.32C271.202 331.97 271.107 331.66 270.917 331.39C270.727 331.12 270.442 330.91 270.062 330.76C269.692 330.61 269.222 330.535 268.652 330.535C267.982 330.535 267.432 330.635 267.002 330.835C266.572 331.025 266.247 331.285 266.027 331.615C265.817 331.945 265.692 332.31 265.652 332.71H263.102Z" fill="white"/>
</g>
<g filter="url(#filter4_d_70_427)">
<rect x="70" y="596" width="237" height="49" rx="10" fill="url(#paint2_linear_70_427)"/>
</g>
<rect x="72.5" y="465.5" width="236" height="48" rx="9.5" fill="white" stroke="#177BA8"/>
<rect x="70.5" y="531.5" width="236" height="48" rx="9.5" fill="white" stroke="#177BA8"/>
<path d="M95.756 484.76H97.76V494H95.756V484.76ZM102.85 494.18C102.002 494.18 101.258 494.032 100.618 493.736C99.9783 493.432 99.4783 493.012 99.1183 492.476C98.7583 491.932 98.5783 491.304 98.5783 490.592C98.5783 489.872 98.7583 489.244 99.1183 488.708C99.4783 488.164 99.9783 487.744 100.618 487.448C101.258 487.144 102.002 486.992 102.85 486.992C103.698 486.992 104.442 487.144 105.082 487.448C105.722 487.744 106.218 488.164 106.57 488.708C106.93 489.244 107.11 489.872 107.11 490.592C107.11 491.304 106.93 491.932 106.57 492.476C106.218 493.012 105.722 493.432 105.082 493.736C104.442 494.032 103.698 494.18 102.85 494.18ZM102.85 492.656C103.314 492.656 103.71 492.572 104.038 492.404C104.374 492.236 104.63 492 104.806 491.696C104.99 491.384 105.082 491.016 105.082 490.592C105.082 490.16 104.99 489.792 104.806 489.488C104.63 489.176 104.374 488.936 104.038 488.768C103.71 488.6 103.314 488.516 102.85 488.516C102.394 488.516 101.998 488.6 101.662 488.768C101.326 488.936 101.066 489.176 100.882 489.488C100.706 489.792 100.618 490.16 100.618 490.592C100.618 491.016 100.706 491.384 100.882 491.696C101.066 492 101.326 492.236 101.662 492.404C101.998 492.572 102.394 492.656 102.85 492.656ZM114.017 492.308V491.12L114.089 490.868V489.38L114.017 489.128V487.172H116.021V492.176C116.021 493.04 115.829 493.768 115.445 494.36C115.069 494.952 114.545 495.4 113.873 495.704C113.201 496.008 112.421 496.16 111.533 496.16C110.909 496.16 110.333 496.08 109.805 495.92C109.285 495.76 108.773 495.516 108.269 495.188V493.616C108.757 493.992 109.265 494.26 109.793 494.42C110.329 494.58 110.869 494.66 111.413 494.66C112.253 494.66 112.897 494.464 113.345 494.072C113.793 493.68 114.017 493.092 114.017 492.308ZM110.909 493.376C110.277 493.376 109.709 493.244 109.205 492.98C108.709 492.716 108.317 492.344 108.029 491.864C107.741 491.384 107.597 490.824 107.597 490.184C107.597 489.544 107.741 488.988 108.029 488.516C108.317 488.036 108.709 487.664 109.205 487.4C109.709 487.128 110.277 486.992 110.909 486.992C111.389 486.992 111.825 487.068 112.217 487.22C112.617 487.364 112.973 487.556 113.285 487.796C113.605 488.036 113.873 488.3 114.089 488.588C114.305 488.868 114.469 489.152 114.581 489.44C114.701 489.72 114.761 489.976 114.761 490.208C114.761 490.504 114.669 490.836 114.485 491.204C114.309 491.572 114.053 491.92 113.717 492.248C113.381 492.576 112.977 492.848 112.505 493.064C112.033 493.272 111.501 493.376 110.909 493.376ZM111.569 491.96C112.089 491.96 112.557 491.82 112.973 491.54C113.397 491.252 113.769 490.8 114.089 490.184C113.769 489.56 113.397 489.108 112.973 488.828C112.549 488.54 112.081 488.396 111.569 488.396C111.161 488.396 110.809 488.472 110.513 488.624C110.225 488.768 110.001 488.976 109.841 489.248C109.689 489.512 109.613 489.824 109.613 490.184C109.613 490.536 109.689 490.848 109.841 491.12C109.993 491.384 110.217 491.592 110.513 491.744C110.809 491.888 111.161 491.96 111.569 491.96ZM117.162 487.1L118.158 487.292L119.166 487.1V494H117.162V487.1ZM118.158 486.392C117.798 486.392 117.502 486.3 117.27 486.116C117.046 485.924 116.934 485.672 116.934 485.36C116.934 485.04 117.046 484.788 117.27 484.604C117.502 484.412 117.798 484.316 118.158 484.316C118.526 484.316 118.822 484.412 119.046 484.604C119.27 484.788 119.382 485.04 119.382 485.36C119.382 485.672 119.27 485.924 119.046 486.116C118.822 486.3 118.526 486.392 118.158 486.392ZM120.021 487.172H122.025L122.457 489.776V494H120.453V489.476L120.021 487.172ZM125.061 486.992C125.709 486.992 126.261 487.124 126.717 487.388C127.173 487.644 127.521 488.012 127.761 488.492C128.001 488.972 128.121 489.544 128.121 490.208V494H126.117V490.508C126.117 489.892 125.969 489.428 125.673 489.116C125.377 488.796 124.945 488.636 124.377 488.636C123.993 488.636 123.653 488.724 123.357 488.9C123.069 489.068 122.845 489.304 122.685 489.608C122.533 489.912 122.457 490.276 122.457 490.7L121.797 490.352C121.877 489.632 122.069 489.024 122.373 488.528C122.677 488.032 123.061 487.652 123.525 487.388C123.989 487.124 124.501 486.992 125.061 486.992Z" fill="#828282"/>
<path d="M95.756 553.172H97.76V555.344L97.676 555.608V557.252L97.76 557.744V561.98H95.756V553.172ZM97.064 556.592C97.2 555.864 97.436 555.232 97.772 554.696C98.116 554.152 98.544 553.732 99.056 553.436C99.576 553.14 100.152 552.992 100.784 552.992C101.456 552.992 102.044 553.144 102.548 553.448C103.06 553.744 103.46 554.164 103.748 554.708C104.036 555.244 104.18 555.872 104.18 556.592C104.18 557.304 104.036 557.932 103.748 558.476C103.46 559.012 103.06 559.432 102.548 559.736C102.044 560.032 101.456 560.18 100.784 560.18C100.144 560.18 99.568 560.032 99.056 559.736C98.552 559.44 98.128 559.024 97.784 558.488C97.44 557.944 97.2 557.312 97.064 556.592ZM102.152 556.592C102.152 556.192 102.068 555.84 101.9 555.536C101.74 555.224 101.516 554.984 101.228 554.816C100.94 554.64 100.608 554.552 100.232 554.552C99.856 554.552 99.5 554.64 99.164 554.816C98.828 554.984 98.532 555.224 98.276 555.536C98.028 555.84 97.832 556.192 97.688 556.592C97.832 556.992 98.028 557.344 98.276 557.648C98.532 557.952 98.828 558.192 99.164 558.368C99.5 558.536 99.856 558.62 100.232 558.62C100.608 558.62 100.94 558.536 101.228 558.368C101.516 558.192 101.74 557.952 101.9 557.648C102.068 557.344 102.152 556.992 102.152 556.592ZM111.272 560L110.984 557.504L111.308 556.592L110.984 555.692L111.272 553.172H113.348L112.952 556.592L113.348 560H111.272ZM111.8 556.592C111.672 557.312 111.436 557.944 111.092 558.488C110.756 559.024 110.328 559.44 109.808 559.736C109.296 560.032 108.72 560.18 108.08 560.18C107.416 560.18 106.828 560.032 106.316 559.736C105.804 559.432 105.404 559.012 105.116 558.476C104.836 557.932 104.696 557.304 104.696 556.592C104.696 555.872 104.836 555.244 105.116 554.708C105.404 554.164 105.804 553.744 106.316 553.448C106.828 553.144 107.416 552.992 108.08 552.992C108.72 552.992 109.296 553.14 109.808 553.436C110.328 553.732 110.76 554.152 111.104 554.696C111.448 555.232 111.68 555.864 111.8 556.592ZM106.724 556.592C106.724 556.992 106.804 557.344 106.964 557.648C107.132 557.952 107.36 558.192 107.648 558.368C107.936 558.536 108.268 558.62 108.644 558.62C109.02 558.62 109.372 558.536 109.7 558.368C110.036 558.192 110.332 557.952 110.588 557.648C110.844 557.344 111.044 556.992 111.188 556.592C111.044 556.192 110.844 555.84 110.588 555.536C110.332 555.224 110.036 554.984 109.7 554.816C109.372 554.64 109.02 554.552 108.644 554.552C108.268 554.552 107.936 554.64 107.648 554.816C107.36 554.984 107.132 555.224 106.964 555.536C106.804 555.84 106.724 556.192 106.724 556.592ZM121.819 557.852C121.819 558.34 121.675 558.76 121.387 559.112C121.107 559.464 120.687 559.732 120.127 559.916C119.567 560.092 118.883 560.18 118.075 560.18C117.243 560.18 116.519 560.08 115.903 559.88C115.287 559.672 114.807 559.38 114.463 559.004C114.119 558.628 113.935 558.192 113.911 557.696H115.951C115.999 557.92 116.119 558.116 116.311 558.284C116.503 558.444 116.751 558.568 117.055 558.656C117.367 558.744 117.727 558.788 118.135 558.788C118.703 558.788 119.131 558.724 119.419 558.596C119.715 558.468 119.863 558.276 119.863 558.02C119.863 557.836 119.759 557.696 119.551 557.6C119.351 557.504 118.979 557.432 118.435 557.384L117.163 557.288C116.403 557.224 115.799 557.096 115.351 556.904C114.903 556.712 114.583 556.472 114.391 556.184C114.207 555.888 114.115 555.564 114.115 555.212C114.115 554.724 114.267 554.316 114.571 553.988C114.875 553.66 115.299 553.412 115.843 553.244C116.395 553.076 117.031 552.992 117.751 552.992C118.487 552.992 119.143 553.092 119.719 553.292C120.295 553.492 120.755 553.768 121.099 554.12C121.451 554.472 121.651 554.88 121.699 555.344H119.659C119.627 555.176 119.535 555.02 119.383 554.876C119.239 554.724 119.027 554.6 118.747 554.504C118.467 554.408 118.103 554.36 117.655 554.36C117.151 554.36 116.763 554.42 116.491 554.54C116.219 554.652 116.083 554.824 116.083 555.056C116.083 555.216 116.167 555.348 116.335 555.452C116.503 555.548 116.815 555.616 117.271 555.656L118.927 555.788C119.663 555.852 120.243 555.976 120.667 556.16C121.091 556.336 121.387 556.568 121.555 556.856C121.731 557.144 121.819 557.476 121.819 557.852ZM130.111 557.852C130.111 558.34 129.967 558.76 129.679 559.112C129.399 559.464 128.979 559.732 128.419 559.916C127.859 560.092 127.175 560.18 126.367 560.18C125.535 560.18 124.811 560.08 124.195 559.88C123.579 559.672 123.099 559.38 122.755 559.004C122.411 558.628 122.227 558.192 122.203 557.696H124.243C124.291 557.92 124.411 558.116 124.603 558.284C124.795 558.444 125.043 558.568 125.347 558.656C125.659 558.744 126.019 558.788 126.427 558.788C126.995 558.788 127.423 558.724 127.711 558.596C128.007 558.468 128.155 558.276 128.155 558.02C128.155 557.836 128.051 557.696 127.843 557.6C127.643 557.504 127.271 557.432 126.727 557.384L125.455 557.288C124.695 557.224 124.091 557.096 123.643 556.904C123.195 556.712 122.875 556.472 122.683 556.184C122.499 555.888 122.407 555.564 122.407 555.212C122.407 554.724 122.559 554.316 122.863 553.988C123.167 553.66 123.591 553.412 124.135 553.244C124.687 553.076 125.323 552.992 126.043 552.992C126.779 552.992 127.435 553.092 128.011 553.292C128.587 553.492 129.047 553.768 129.391 554.12C129.743 554.472 129.943 554.88 129.991 555.344H127.951C127.919 555.176 127.827 555.02 127.675 554.876C127.531 554.724 127.319 554.6 127.039 554.504C126.759 554.408 126.395 554.36 125.947 554.36C125.443 554.36 125.055 554.42 124.783 554.54C124.511 554.652 124.375 554.824 124.375 555.056C124.375 555.216 124.459 555.348 124.627 555.452C124.795 555.548 125.107 555.616 125.563 555.656L127.219 555.788C127.955 555.852 128.535 555.976 128.959 556.16C129.383 556.336 129.679 556.568 129.847 556.856C130.023 557.144 130.111 557.476 130.111 557.852ZM139.742 558.908H139.082L141.218 553.172H143.222L140.582 560H138.53L136.25 554.108H136.97L134.654 560H132.602L129.962 553.172H131.99L134.138 558.908H133.454L135.638 553.172H137.594L139.742 558.908ZM147.372 560.18C146.524 560.18 145.78 560.032 145.14 559.736C144.5 559.432 144 559.012 143.64 558.476C143.28 557.932 143.1 557.304 143.1 556.592C143.1 555.872 143.28 555.244 143.64 554.708C144 554.164 144.5 553.744 145.14 553.448C145.78 553.144 146.524 552.992 147.372 552.992C148.22 552.992 148.964 553.144 149.604 553.448C150.244 553.744 150.74 554.164 151.092 554.708C151.452 555.244 151.632 555.872 151.632 556.592C151.632 557.304 151.452 557.932 151.092 558.476C150.74 559.012 150.244 559.432 149.604 559.736C148.964 560.032 148.22 560.18 147.372 560.18ZM147.372 558.656C147.836 558.656 148.232 558.572 148.56 558.404C148.896 558.236 149.152 558 149.328 557.696C149.512 557.384 149.604 557.016 149.604 556.592C149.604 556.16 149.512 555.792 149.328 555.488C149.152 555.176 148.896 554.936 148.56 554.768C148.232 554.6 147.836 554.516 147.372 554.516C146.916 554.516 146.52 554.6 146.184 554.768C145.848 554.936 145.588 555.176 145.404 555.488C145.228 555.792 145.14 556.16 145.14 556.592C145.14 557.016 145.228 557.384 145.404 557.696C145.588 558 145.848 558.236 146.184 558.404C146.52 558.572 146.916 558.656 147.372 558.656ZM152.12 553.172H154.148L154.556 555.632V560H152.552V555.416L152.12 553.172ZM157.88 553.1V554.828C157.672 554.78 157.464 554.744 157.256 554.72C157.048 554.696 156.852 554.684 156.668 554.684C156.268 554.684 155.908 554.768 155.588 554.936C155.268 555.104 155.016 555.364 154.832 555.716C154.648 556.068 154.556 556.512 154.556 557.048L154.136 556.544C154.184 556.056 154.272 555.6 154.4 555.176C154.528 554.744 154.704 554.368 154.928 554.048C155.16 553.72 155.444 553.464 155.78 553.28C156.116 553.088 156.516 552.992 156.98 552.992C157.132 552.992 157.284 553.004 157.436 553.028C157.596 553.044 157.744 553.068 157.88 553.1ZM164.551 560L164.263 557.42L164.647 556.604L164.275 555.608L164.815 550.76H166.891L166.231 556.448L166.627 560H164.551ZM165.043 556.592C164.915 557.312 164.679 557.944 164.335 558.488C163.999 559.024 163.571 559.44 163.051 559.736C162.539 560.032 161.963 560.18 161.323 560.18C160.659 560.18 160.071 560.032 159.559 559.736C159.047 559.432 158.647 559.012 158.359 558.476C158.079 557.932 157.939 557.304 157.939 556.592C157.939 555.872 158.079 555.244 158.359 554.708C158.647 554.164 159.047 553.744 159.559 553.448C160.071 553.144 160.659 552.992 161.323 552.992C161.963 552.992 162.539 553.14 163.051 553.436C163.571 553.732 164.003 554.152 164.347 554.696C164.691 555.232 164.923 555.864 165.043 556.592ZM159.967 556.592C159.967 556.992 160.047 557.344 160.207 557.648C160.375 557.952 160.603 558.192 160.891 558.368C161.179 558.536 161.511 558.62 161.887 558.62C162.263 558.62 162.615 558.536 162.943 558.368C163.279 558.192 163.575 557.952 163.831 557.648C164.087 557.344 164.287 556.992 164.431 556.592C164.287 556.192 164.087 555.84 163.831 555.536C163.575 555.224 163.279 554.984 162.943 554.816C162.615 554.64 162.263 554.552 161.887 554.552C161.511 554.552 161.179 554.64 160.891 554.816C160.603 554.984 160.375 555.224 160.207 555.536C160.047 555.84 159.967 556.192 159.967 556.592Z" fill="#828282"/>
<path d="M157.128 620.325H159.708C159.768 620.705 159.933 621.04 160.203 621.33C160.483 621.61 160.853 621.83 161.313 621.99C161.783 622.14 162.323 622.215 162.933 622.215C163.823 622.215 164.523 622.09 165.033 621.84C165.553 621.58 165.813 621.22 165.813 620.76C165.813 620.4 165.663 620.125 165.363 619.935C165.073 619.735 164.528 619.59 163.728 619.5L161.463 619.245C160.003 619.085 158.943 618.745 158.283 618.225C157.633 617.695 157.308 616.96 157.308 616.02C157.308 615.28 157.523 614.65 157.953 614.13C158.393 613.61 159.008 613.215 159.798 612.945C160.588 612.665 161.518 612.525 162.588 612.525C163.628 612.525 164.553 612.68 165.363 612.99C166.173 613.29 166.818 613.715 167.298 614.265C167.778 614.805 168.038 615.44 168.078 616.17H165.498C165.448 615.84 165.298 615.555 165.048 615.315C164.808 615.065 164.473 614.875 164.043 614.745C163.613 614.605 163.108 614.535 162.528 614.535C161.718 614.535 161.073 614.655 160.593 614.895C160.113 615.135 159.873 615.475 159.873 615.915C159.873 616.255 160.013 616.52 160.293 616.71C160.583 616.89 161.088 617.025 161.808 617.115L164.163 617.4C165.203 617.51 166.028 617.69 166.638 617.94C167.258 618.18 167.698 618.505 167.958 618.915C168.228 619.325 168.363 619.845 168.363 620.475C168.363 621.225 168.133 621.885 167.673 622.455C167.223 623.015 166.588 623.45 165.768 623.76C164.948 624.07 163.988 624.225 162.888 624.225C161.768 624.225 160.783 624.065 159.933 623.745C159.083 623.415 158.413 622.96 157.923 622.38C157.433 621.79 157.168 621.105 157.128 620.325ZM169.504 615.375L170.749 615.615L172.009 615.375V624H169.504V615.375ZM170.749 614.49C170.299 614.49 169.929 614.375 169.639 614.145C169.359 613.905 169.219 613.59 169.219 613.2C169.219 612.8 169.359 612.485 169.639 612.255C169.929 612.015 170.299 611.895 170.749 611.895C171.209 611.895 171.579 612.015 171.859 612.255C172.139 612.485 172.279 612.8 172.279 613.2C172.279 613.59 172.139 613.905 171.859 614.145C171.579 614.375 171.209 614.49 170.749 614.49ZM181.155 621.885V620.4L181.245 620.085V618.225L181.155 617.91V615.465H183.66V621.72C183.66 622.8 183.42 623.71 182.94 624.45C182.47 625.19 181.815 625.75 180.975 626.13C180.135 626.51 179.16 626.7 178.05 626.7C177.27 626.7 176.55 626.6 175.89 626.4C175.24 626.2 174.6 625.895 173.97 625.485V623.52C174.58 623.99 175.215 624.325 175.875 624.525C176.545 624.725 177.22 624.825 177.9 624.825C178.95 624.825 179.755 624.58 180.315 624.09C180.875 623.6 181.155 622.865 181.155 621.885ZM177.27 623.22C176.48 623.22 175.77 623.055 175.14 622.725C174.52 622.395 174.03 621.93 173.67 621.33C173.31 620.73 173.13 620.03 173.13 619.23C173.13 618.43 173.31 617.735 173.67 617.145C174.03 616.545 174.52 616.08 175.14 615.75C175.77 615.41 176.48 615.24 177.27 615.24C177.87 615.24 178.415 615.335 178.905 615.525C179.405 615.705 179.85 615.945 180.24 616.245C180.64 616.545 180.975 616.875 181.245 617.235C181.515 617.585 181.72 617.94 181.86 618.3C182.01 618.65 182.085 618.97 182.085 619.26C182.085 619.63 181.97 620.045 181.74 620.505C181.52 620.965 181.2 621.4 180.78 621.81C180.36 622.22 179.855 622.56 179.265 622.83C178.675 623.09 178.01 623.22 177.27 623.22ZM178.095 621.45C178.745 621.45 179.33 621.275 179.85 620.925C180.38 620.565 180.845 620 181.245 619.23C180.845 618.45 180.38 617.885 179.85 617.535C179.32 617.175 178.735 616.995 178.095 616.995C177.585 616.995 177.145 617.09 176.775 617.28C176.415 617.46 176.135 617.72 175.935 618.06C175.745 618.39 175.65 618.78 175.65 619.23C175.65 619.67 175.745 620.06 175.935 620.4C176.125 620.73 176.405 620.99 176.775 621.18C177.145 621.36 177.585 621.45 178.095 621.45ZM184.766 615.465H187.271L187.811 618.72V624H185.306V618.345L184.766 615.465ZM191.066 615.24C191.876 615.24 192.566 615.405 193.136 615.735C193.706 616.055 194.141 616.515 194.441 617.115C194.741 617.715 194.891 618.43 194.891 619.26V624H192.386V619.635C192.386 618.865 192.201 618.285 191.831 617.895C191.461 617.495 190.921 617.295 190.211 617.295C189.731 617.295 189.306 617.405 188.936 617.625C188.576 617.835 188.296 618.13 188.096 618.51C187.906 618.89 187.811 619.345 187.811 619.875L186.986 619.44C187.086 618.54 187.326 617.78 187.706 617.16C188.086 616.54 188.566 616.065 189.146 615.735C189.726 615.405 190.366 615.24 191.066 615.24ZM199.826 615.375L201.071 615.615L202.331 615.375V624H199.826V615.375ZM201.071 614.49C200.621 614.49 200.251 614.375 199.961 614.145C199.681 613.905 199.541 613.59 199.541 613.2C199.541 612.8 199.681 612.485 199.961 612.255C200.251 612.015 200.621 611.895 201.071 611.895C201.531 611.895 201.901 612.015 202.181 612.255C202.461 612.485 202.601 612.8 202.601 613.2C202.601 613.59 202.461 613.905 202.181 614.145C201.901 614.375 201.531 614.49 201.071 614.49ZM203.482 615.465H205.987L206.527 618.72V624H204.022V618.345L203.482 615.465ZM209.782 615.24C210.592 615.24 211.282 615.405 211.852 615.735C212.422 616.055 212.857 616.515 213.157 617.115C213.457 617.715 213.607 618.43 213.607 619.26V624H211.102V619.635C211.102 618.865 210.917 618.285 210.547 617.895C210.177 617.495 209.637 617.295 208.927 617.295C208.447 617.295 208.022 617.405 207.652 617.625C207.292 617.835 207.012 618.13 206.812 618.51C206.622 618.89 206.527 619.345 206.527 619.875L205.702 619.44C205.802 618.54 206.042 617.78 206.422 617.16C206.802 616.54 207.282 616.065 207.862 615.735C208.442 615.405 209.082 615.24 209.782 615.24Z" fill="white"/>
<defs>
<filter id="filter0_di_70_427" x="58.8208" y="100.5" width="250.845" height="39.5" filterUnits="userSpaceOnUse" color-interpolation-filters="sRGB">
<feFlood flood-opacity="0" result="BackgroundImageFix"/>
<feColorMatrix in="SourceAlpha" type="matrix" values="0 0 0 0 0 0 0 0 0 0 0 0 0 0 0 0 0 0 127 0" result="hardAlpha"/>
<feOffset dy="4"/>
<feGaussianBlur stdDeviation="2"/>
<feComposite in2="hardAlpha" operator="out"/>
<feColorMatrix type="matrix" values="0 0 0 0 0 0 0 0 0 0 0 0 0 0 0 0 0 0 0.25 0"/>
<feBlend mode="normal" in2="BackgroundImageFix" result="effect1_dropShadow_70_427"/>
<feBlend mode="normal" in="SourceGraphic" in2="effect1_dropShadow_70_427" result="shape"/>
<feColorMatrix in="SourceAlpha" type="matrix" values="0 0 0 0 0 0 0 0 0 0 0 0 0 0 0 0 0 0 127 0" result="hardAlpha"/>
<feOffset dy="4"/>
<feGaussianBlur stdDeviation="2"/>
<feComposite in2="hardAlpha" operator="arithmetic" k2="-1" k3="1"/>
<feColorMatrix type="matrix" values="0 0 0 0 0 0 0 0 0 0 0 0 0 0 0 0 0 0 0.25 0"/>
<feBlend mode="normal" in2="shape" result="effect2_innerShadow_70_427"/>
</filter>
<filter id="filter1_di_70_427" x="103" y="100" width="14" height="19" filterUnits="userSpaceOnUse" color-interpolation-filters="sRGB">
<feFlood flood-opacity="0" result="BackgroundImageFix"/>
<feColorMatrix in="SourceAlpha" type="matrix" values="0 0 0 0 0 0 0 0 0 0 0 0 0 0 0 0 0 0 127 0" result="hardAlpha"/>
<feOffset dy="4"/>
<feGaussianBlur stdDeviation="2"/>
<feComposite in2="hardAlpha" operator="out"/>
<feColorMatrix type="matrix" values="0 0 0 0 0 0 0 0 0 0 0 0 0 0 0 0 0 0 0.25 0"/>
<feBlend mode="normal" in2="BackgroundImageFix" result="effect1_dropShadow_70_427"/>
<feBlend mode="normal" in="SourceGraphic" in2="effect1_dropShadow_70_427" result="shape"/>
<feColorMatrix in="SourceAlpha" type="matrix" values="0 0 0 0 0 0 0 0 0 0 0 0 0 0 0 0 0 0 127 0" result="hardAlpha"/>
<feOffset dy="4"/>
<feGaussianBlur stdDeviation="2"/>
<feComposite in2="hardAlpha" operator="arithmetic" k2="-1" k3="1"/>
<feColorMatrix type="matrix" values="0 0 0 0 0 0 0 0 0 0 0 0 0 0 0 0 0 0 0.25 0"/>
<feBlend mode="normal" in2="shape" result="effect2_innerShadow_70_427"/>
</filter>
<filter id="filter2_d_70_427" x="35.3" y="224" width="315.4" height="478.7" filterUnits="userSpaceOnUse" color-interpolation-filters="sRGB">
<feFlood flood-opacity="0" result="BackgroundImageFix"/>
<feColorMatrix in="SourceAlpha" type="matrix" values="0 0 0 0 0 0 0 0 0 0 0 0 0 0 0 0 0 0 127 0" result="hardAlpha"/>
<feOffset dx="5" dy="9"/>
<feGaussianBlur stdDeviation="2.85"/>
<feComposite in2="hardAlpha" operator="out"/>
<feColorMatrix type="matrix" values="0 0 0 0 0 0 0 0 0 0 0 0 0 0 0 0 0 0 0.25 0"/>
<feBlend mode="normal" in2="BackgroundImageFix" result="effect1_dropShadow_70_427"/>
<feBlend mode="normal" in="SourceGraphic" in2="effect1_dropShadow_70_427" result="shape"/>
</filter>
<filter id="filter3_d_70_427" x="70" y="311" width="245" height="57" filterUnits="userSpaceOnUse" color-interpolation-filters="sRGB">
<feFlood flood-opacity="0" result="BackgroundImageFix"/>
<feColorMatrix in="SourceAlpha" type="matrix" values="0 0 0 0 0 0 0 0 0 0 0 0 0 0 0 0 0 0 127 0" result="hardAlpha"/>
<feOffset dx="4" dy="4"/>
<feGaussianBlur stdDeviation="2"/>
<feComposite in2="hardAlpha" operator="out"/>
<feColorMatrix type="matrix" values="0 0 0 0 0 0 0 0 0 0 0 0 0 0 0 0 0 0 0.25 0"/>
<feBlend mode="normal" in2="BackgroundImageFix" result="effect1_dropShadow_70_427"/>
<feBlend mode="normal" in="SourceGraphic" in2="effect1_dropShadow_70_427" result="shape"/>
</filter>
<filter id="filter4_d_70_427" x="70" y="596" width="245" height="57" filterUnits="userSpaceOnUse" color-interpolation-filters="sRGB">
<feFlood flood-opacity="0" result="BackgroundImageFix"/>
<feColorMatrix in="SourceAlpha" type="matrix" values="0 0 0 0 0 0 0 0 0 0 0 0 0 0 0 0 0 0 127 0" result="hardAlpha"/>
<feOffset dx="4" dy="4"/>
<feGaussianBlur stdDeviation="2"/>
<feComposite in2="hardAlpha" operator="out"/>
<feColorMatrix type="matrix" values="0 0 0 0 0 0 0 0 0 0 0 0 0 0 0 0 0 0 0.25 0"/>
<feBlend mode="normal" in2="BackgroundImageFix" result="effect1_dropShadow_70_427"/>
<feBlend mode="normal" in="SourceGraphic" in2="effect1_dropShadow_70_427" result="shape"/>
</filter>
<linearGradient id="paint0_linear_70_427" x1="-122" y1="200.5" x2="382.5" y2="315.5" gradientUnits="userSpaceOnUse">
<stop stop-color="#1987B5"/>
<stop offset="1" stop-color="#0C3A61"/>
</linearGradient>
<linearGradient id="paint1_linear_70_427" x1="3" y1="301.5" x2="342.5" y2="366" gradientUnits="userSpaceOnUse">
<stop stop-color="#4DA2D9"/>
<stop offset="1" stop-color="#15397E"/>
</linearGradient>
<linearGradient id="paint2_linear_70_427" x1="3" y1="586.5" x2="342.5" y2="651" gradientUnits="userSpaceOnUse">
<stop stop-color="#4DA2D9"/>
<stop offset="1" stop-color="#15397E"/>
</linearGradient>
</defs>
</svg>
