<svg width="286" height="56" viewBox="0 0 286 56" fill="none" xmlns="http://www.w3.org/2000/svg">
<g filter="url(#filter0_di_70_560)">
<path d="M29.9609 10.5V38.85L26.7269 35.7H50.3729V42H22.8209V10.5H29.9609ZM120.284 23.52V28.98H97.7301V23.52H120.284ZM102.518 26.25L100.418 39.606L97.3101 36.078H121.586V42H93.2361L95.6721 26.25L93.2361 10.5H121.376V16.422H97.3101L100.418 12.894L102.518 26.25ZM189.877 23.52V28.98H167.323V23.52H189.877ZM172.111 26.25L170.011 39.606L166.903 36.078H191.179V42H162.829L165.265 26.25L162.829 10.5H190.969V16.422H166.903L170.011 12.894L172.111 26.25ZM246.052 13.692H253.15V42H246.052V13.692ZM233.494 10.5H265.666V16.8H233.494V10.5Z" fill="white"/>
<path d="M143.5 38.85H140.35L153.202 10.5H160.762L145.81 42H137.788L122.878 10.5H130.522L143.5 38.85ZM225.465 37.296L222.987 37.674V10.5H229.917V42H220.887L200.727 14.826L203.163 14.448V42H196.275V10.5H205.515L225.465 37.296Z" fill="#081622"/>
</g>
<g filter="url(#filter1_di_70_560)">
<path d="M67 10H73V15.5712C73 15.5712 72.8485 17.8823 71.2879 19.5506C69.7273 21.2189 67 20.9893 67 20.9893V18.4639C67 18.4639 67.9887 18.3721 68.7727 17.5456C69.5568 16.7191 69.5606 15.7548 69.5606 15.7548H67V10Z" fill="#081520"/>
</g>
<defs>
<filter id="filter0_di_70_560" x="18.8208" y="10.5" width="250.845" height="39.5" filterUnits="userSpaceOnUse" color-interpolation-filters="sRGB">
<feFlood flood-opacity="0" result="BackgroundImageFix"/>
<feColorMatrix in="SourceAlpha" type="matrix" values="0 0 0 0 0 0 0 0 0 0 0 0 0 0 0 0 0 0 127 0" result="hardAlpha"/>
<feOffset dy="4"/>
<feGaussianBlur stdDeviation="2"/>
<feComposite in2="hardAlpha" operator="out"/>
<feColorMatrix type="matrix" values="0 0 0 0 0 0 0 0 0 0 0 0 0 0 0 0 0 0 0.25 0"/>
<feBlend mode="normal" in2="BackgroundImageFix" result="effect1_dropShadow_70_560"/>
<feBlend mode="normal" in="SourceGraphic" in2="effect1_dropShadow_70_560" result="shape"/>
<feColorMatrix in="SourceAlpha" type="matrix" values="0 0 0 0 0 0 0 0 0 0 0 0 0 0 0 0 0 0 127 0" result="hardAlpha"/>
<feOffset dy="4"/>
<feGaussianBlur stdDeviation="2"/>
<feComposite in2="hardAlpha" operator="arithmetic" k2="-1" k3="1"/>
<feColorMatrix type="matrix" values="0 0 0 0 0 0 0 0 0 0 0 0 0 0 0 0 0 0 0.25 0"/>
<feBlend mode="normal" in2="shape" result="effect2_innerShadow_70_560"/>
</filter>
<filter id="filter1_di_70_560" x="63" y="10" width="14" height="19" filterUnits="userSpaceOnUse" color-interpolation-filters="sRGB">
<feFlood flood-opacity="0" result="BackgroundImageFix"/>
<feColorMatrix in="SourceAlpha" type="matrix" values="0 0 0 0 0 0 0 0 0 0 0 0 0 0 0 0 0 0 127 0" result="hardAlpha"/>
<feOffset dy="4"/>
<feGaussianBlur stdDeviation="2"/>
<feComposite in2="hardAlpha" operator="out"/>
<feColorMatrix type="matrix" values="0 0 0 0 0 0 0 0 0 0 0 0 0 0 0 0 0 0 0.25 0"/>
<feBlend mode="normal" in2="BackgroundImageFix" result="effect1_dropShadow_70_560"/>
<feBlend mode="normal" in="SourceGraphic" in2="effect1_dropShadow_70_560" result="shape"/>
<feColorMatrix in="SourceAlpha" type="matrix" values="0 0 0 0 0 0 0 0 0 0 0 0 0 0 0 0 0 0 127 0" result="hardAlpha"/>
<feOffset dy="4"/>
<feGaussianBlur stdDeviation="2"/>
<feComposite in2="hardAlpha" operator="arithmetic" k2="-1" k3="1"/>
<feColorMatrix type="matrix" values="0 0 0 0 0 0 0 0 0 0 0 0 0 0 0 0 0 0 0.25 0"/>
<feBlend mode="normal" in2="shape" result="effect2_innerShadow_70_560"/>
</filter>
</defs>
</svg>
