<svg width="15" height="15" viewBox="0 0 15 15" fill="none" xmlns="http://www.w3.org/2000/svg">
<path d="M7.49637 15C11.6071 15 15 11.6054 15 7.5C15 3.39458 11.5998 0 7.48912 0C3.38569 0 0 3.39458 0 7.5C0 11.6054 3.39294 15 7.49637 15ZM7.49637 13.5058C4.16868 13.5058 1.50797 10.8293 1.50797 7.5C1.50797 4.1707 4.16868 1.50145 7.48912 1.50145C10.8168 1.50145 13.492 4.1707 13.4993 7.5C13.5065 10.8293 10.8241 13.5058 7.49637 13.5058ZM4.52392 8.9942C4.52392 9.19004 4.66167 9.33511 4.86467 9.33511H5.21991L4.91542 10.2345C4.88642 10.3433 4.87192 10.4231 4.87192 10.4956C4.87192 10.793 5.09666 10.9961 5.42291 10.9961C5.70565 10.9961 5.8724 10.8583 5.95215 10.5827L6.34364 9.33511H8.62736L9.01885 10.5899C9.0986 10.8656 9.2581 10.9961 9.55534 10.9961C9.87434 10.9961 10.0991 10.793 10.0991 10.4956C10.0991 10.4231 10.0846 10.3433 10.0483 10.2345L9.74384 9.33511H10.1136C10.3166 9.33511 10.4543 9.19004 10.4543 8.9942C10.4543 8.79836 10.3166 8.65329 10.1136 8.65329H9.52634L9.33784 8.06576H10.1136C10.3166 8.06576 10.4543 7.91344 10.4543 7.7176C10.4543 7.52901 10.3166 7.37669 10.1136 7.37669H9.1131L8.21411 4.62041C8.10536 4.2795 7.85887 4.06915 7.48912 4.06915C7.10488 4.06915 6.85839 4.27224 6.74964 4.62041L5.85065 7.37669H4.86467C4.66167 7.37669 4.52392 7.52901 4.52392 7.7176C4.52392 7.91344 4.66167 8.06576 4.86467 8.06576H5.62591L5.43741 8.65329H4.86467C4.66167 8.65329 4.52392 8.79836 4.52392 8.9942ZM6.92363 7.37669L7.48912 5.54884L8.04737 7.37669H6.92363ZM6.53939 8.65329L6.72064 8.06576H8.25036L8.43161 8.65329H6.53939Z" fill="white"/>
</svg>
